<mxfile host="app.diagrams.net" modified="2023-04-26T17:28:27.934Z" agent="Mozilla/5.0 (Windows NT 10.0; Win64; x64) AppleWebKit/537.36 (KHTML, like Gecko) Chrome/112.0.0.0 Safari/537.36" etag="5_vDlZDWLSv1mJaRRD1e" version="21.2.2" type="github">
  <diagram name="Page-1" id="0MuxhffrNZDOfIzVkkNm">
    <mxGraphModel dx="794" dy="438" grid="1" gridSize="10" guides="1" tooltips="1" connect="1" arrows="1" fold="1" page="1" pageScale="1" pageWidth="850" pageHeight="1100" math="0" shadow="0">
      <root>
        <mxCell id="0" />
        <mxCell id="1" parent="0" />
        <mxCell id="nsGRFE9v12qR5pRrsUq4-1" value="" style="whiteSpace=wrap;html=1;aspect=fixed;" parent="1" vertex="1">
          <mxGeometry x="50" y="190" width="80" height="80" as="geometry" />
        </mxCell>
        <mxCell id="nsGRFE9v12qR5pRrsUq4-4" value="" style="edgeStyle=orthogonalEdgeStyle;rounded=0;orthogonalLoop=1;jettySize=auto;html=1;" parent="1" source="nsGRFE9v12qR5pRrsUq4-2" target="nsGRFE9v12qR5pRrsUq4-3" edge="1">
          <mxGeometry relative="1" as="geometry" />
        </mxCell>
        <mxCell id="nsGRFE9v12qR5pRrsUq4-6" value="" style="edgeStyle=orthogonalEdgeStyle;rounded=0;orthogonalLoop=1;jettySize=auto;html=1;" parent="1" source="nsGRFE9v12qR5pRrsUq4-2" target="nsGRFE9v12qR5pRrsUq4-3" edge="1">
          <mxGeometry relative="1" as="geometry" />
        </mxCell>
        <mxCell id="nsGRFE9v12qR5pRrsUq4-2" value="analyst friendly excel&amp;nbsp;&lt;br&gt;file" style="text;html=1;strokeColor=none;fillColor=none;align=center;verticalAlign=middle;whiteSpace=wrap;rounded=0;" parent="1" vertex="1">
          <mxGeometry x="60" y="210" width="60" height="30" as="geometry" />
        </mxCell>
        <mxCell id="nsGRFE9v12qR5pRrsUq4-5" value="" style="edgeStyle=orthogonalEdgeStyle;rounded=0;orthogonalLoop=1;jettySize=auto;html=1;" parent="1" source="nsGRFE9v12qR5pRrsUq4-3" target="nsGRFE9v12qR5pRrsUq4-2" edge="1">
          <mxGeometry relative="1" as="geometry" />
        </mxCell>
        <mxCell id="nsGRFE9v12qR5pRrsUq4-8" value="" style="edgeStyle=orthogonalEdgeStyle;rounded=0;orthogonalLoop=1;jettySize=auto;html=1;" parent="1" source="nsGRFE9v12qR5pRrsUq4-3" target="nsGRFE9v12qR5pRrsUq4-7" edge="1">
          <mxGeometry relative="1" as="geometry" />
        </mxCell>
        <mxCell id="nsGRFE9v12qR5pRrsUq4-3" value="yaml" style="whiteSpace=wrap;html=1;" parent="1" vertex="1">
          <mxGeometry x="190" y="195" width="120" height="60" as="geometry" />
        </mxCell>
        <mxCell id="nsGRFE9v12qR5pRrsUq4-10" value="" style="edgeStyle=orthogonalEdgeStyle;rounded=0;orthogonalLoop=1;jettySize=auto;html=1;" parent="1" source="nsGRFE9v12qR5pRrsUq4-7" target="nsGRFE9v12qR5pRrsUq4-9" edge="1">
          <mxGeometry relative="1" as="geometry" />
        </mxCell>
        <mxCell id="nsGRFE9v12qR5pRrsUq4-7" value="gx suite" style="whiteSpace=wrap;html=1;" parent="1" vertex="1">
          <mxGeometry x="370" y="195" width="120" height="60" as="geometry" />
        </mxCell>
        <mxCell id="nsGRFE9v12qR5pRrsUq4-9" value="luis" style="whiteSpace=wrap;html=1;" parent="1" vertex="1">
          <mxGeometry x="570" y="195" width="120" height="60" as="geometry" />
        </mxCell>
      </root>
    </mxGraphModel>
  </diagram>
</mxfile>
